<?xml version="1.0" standalone="no"?>
<!DOCTYPE svg PUBLIC "-//W3C//DTD SVG 1.1//EN" "http://www.w3.org/Graphics/SVG/1.1/DTD/svg11.dtd" >
<svg xmlns="http://www.w3.org/2000/svg">
<metadata>Generated by IcoMoon</metadata>
<defs>
<font id="icomoon" horiz-adv-x="1024">
<font-face units-per-em="1024" ascent="960" descent="-64" />
<missing-glyph horiz-adv-x="1024" />
<glyph unicode="&#x20;" horiz-adv-x="512" d="" />
<glyph unicode="&#xe900;" glyph-name="arrow-up" d="M56.32 243.2l42.721-42.721 412.959 412.959 412.959-412.959 42.721 42.721-455.68 455.68z" />
<glyph unicode="&#xe901;" glyph-name="arrow-back" d="M716.8-7.68l42.721 42.721-412.959 412.959 412.959 412.959-42.721 42.721-455.68-455.68z" />
<glyph unicode="&#xe902;" glyph-name="arrow-down" d="M967.68 652.8l-42.721 42.721-412.959-412.959-412.959 412.959-42.721-42.721 455.68-455.68z" />
<glyph unicode="&#xe903;" glyph-name="arrow-forward" d="M307.2 903.68l-42.721-42.721 412.959-412.959-412.959-412.959 42.721-42.721 455.68 455.68z" />
<glyph unicode="&#xe904;" glyph-name="idea" d="M512 960c-194.432 0-352-157.568-352-352 0-128.992 118.016-265.696 160.992-385.76 64.096-179.040 56.992-286.24 191.008-286.24 136 0 126.88 106.688 191.008 285.504 43.104 120.32 160.992 258.496 160.992 386.496 0 194.432-157.632 352-352 352zM594.944 90.368l-158.656-19.808c-5.664 16.384-11.744 35.552-19.136 60.576-0.096 0.32-0.224 0.672-0.288 0.992l198.016 24.736c-2.816-9.44-5.824-19.36-8.448-28.256-4.192-14.368-7.936-26.848-11.488-38.24zM407.552 162.944c-5.824 19.264-12.384 39.552-19.68 61.056h248.512c-3.936-11.488-7.872-23.008-11.264-33.888l-217.568-27.168zM512 0c-32.416 0-47.328 3.744-63.904 40l135.616 16.992c-19.648-52.928-33.952-56.992-71.712-56.992zM661.504 288h-298.656c-15.936 34.56-35.072 69.12-53.952 102.944-41.76 74.72-84.896 152-84.896 217.056 0 158.816 129.184 288 288 288s288-129.184 288-288c0-64.576-43.2-142.272-84.992-217.44-18.688-33.696-37.696-68.192-53.504-102.56zM512 800c8.8 0 16-7.168 16-16s-7.168-16-16-16c-88.224 0-160-71.776-160-160 0-8.832-7.168-16-16-16s-16 7.168-16 16c0 105.888 86.112 192 192 192z" />
<glyph unicode="&#xe905;" glyph-name="cog" d="M201.728 640l-88.064 146.432 72.704 72.704 146.432-88.064c26.624 15.36 56.32 27.648 87.040 35.84l40.96 165.888h102.4l40.96-165.888c30.72-8.192 60.416-20.48 87.040-35.84l146.432 88.064 72.704-72.704-88.064-146.432c15.36-26.624 27.648-56.32 35.84-87.040l165.888-40.96v-102.4l-165.888-40.96c-8.192-30.72-20.48-60.416-35.84-87.040l88.064-146.432-72.704-72.704-146.432 88.064c-26.624-15.36-56.32-27.648-87.040-35.84l-40.96-165.888h-102.4l-40.96 165.888c-30.72 8.192-60.416 20.48-87.040 35.84l-146.432-88.064-72.704 72.704 88.064 146.432c-15.36 26.624-27.648 56.32-35.84 87.040l-165.888 40.96v102.4l165.888 40.96c8.192 30.72 20.48 60.416 35.84 87.040zM512 307.2c84.831 0 153.6 68.769 153.6 153.6s-68.769 153.6-153.6 153.6v0c-84.831 0-153.6-68.769-153.6-153.6s68.769-153.6 153.6-153.6v0z" />
<glyph unicode="&#xe906;" glyph-name="search" d="M660.48 239.616c-68.622-53.712-156.164-86.131-251.277-86.131-226.216 0-409.6 183.384-409.6 409.6s183.384 409.6 409.6 409.6c226.216 0 409.6-183.384 409.6-409.6 0-95.113-32.419-182.654-86.809-252.177l0.678 0.9 273.92-272.896-72.704-72.704-272.896 273.408zM409.6 256c169.662 0 307.2 137.538 307.2 307.2s-137.538 307.2-307.2 307.2v0c-169.662 0-307.2-137.538-307.2-307.2s137.538-307.2 307.2-307.2v0z" />
<glyph unicode="&#xe907;" glyph-name="calendar" d="M51.2 768c0 56.32 46.080 102.4 102.4 102.4h716.8c56.554 0 102.4-45.846 102.4-102.4v0-716.8c0-56.554-45.846-102.4-102.4-102.4v0h-716.8c-56.554 0-102.4 45.846-102.4 102.4v0 716.8zM153.6 665.6v-614.4h716.8v614.4h-716.8zM256 972.8h102.4v-102.4h-102.4v102.4zM665.6 972.8h102.4v-102.4h-102.4v102.4zM256 512h102.4v-102.4h-102.4v102.4zM256 307.2h102.4v-102.4h-102.4v102.4zM460.8 512h102.4v-102.4h-102.4v102.4zM460.8 307.2h102.4v-102.4h-102.4v102.4zM665.6 512h102.4v-102.4h-102.4v102.4zM665.6 307.2h102.4v-102.4h-102.4v102.4z" />
<glyph unicode="&#xe908;" glyph-name="inbox-download" d="M0 870.4c0 56.32 46.080 102.4 102.4 102.4h819.2c56.554 0 102.4-45.846 102.4-102.4v0-819.2c0-56.554-45.846-102.4-102.4-102.4v0h-819.2c-56.554 0-102.4 45.846-102.4 102.4v0 819.2zM716.8 256h204.8v614.4h-819.2v-614.4h204.8c0-56.32 46.080-102.4 102.4-102.4h204.8c56.554 0 102.4 45.846 102.4 102.4v0zM460.8 563.2v153.6h102.4v-153.6h153.6l-204.8-204.8-204.8 204.8h153.6z" />
<glyph unicode="&#xe909;" glyph-name="inbox-check" d="M0 870.4c0 56.32 46.080 102.4 102.4 102.4h819.2c56.554 0 102.4-45.846 102.4-102.4v0-819.2c0-56.554-45.846-102.4-102.4-102.4v0h-819.2c-56.554 0-102.4 45.846-102.4 102.4v0 819.2zM716.8 256h204.8v614.4h-819.2v-614.4h204.8c0-56.32 46.080-102.4 102.4-102.4h204.8c56.554 0 102.4 45.846 102.4 102.4v0zM256 512l102.4 102.4 102.4-102.4 204.8 204.8 102.4-102.4-307.2-307.2-204.8 204.8z" />
<glyph unicode="&#xe90a;" glyph-name="home" d="M1024 352l-192 192v288h-128v-160l-192 192-512-512v-32h128v-320h320v192h128v-192h320v320h128z" />
<glyph unicode="&#xe90b;" glyph-name="chf" horiz-adv-x="892" d="M806.317 960h-495.418c-47.108-0.037-85.31-38.112-85.553-85.167v-467.066h-139.793c-47.096-0.037-85.291-38.093-85.553-85.132v-0.025c0.244-47.079 38.446-85.153 85.55-85.19h139.796v-216.262c0.262-47.076 38.476-85.139 85.585-85.157h0.002c47.071 0 85.554 38.317 85.554 85.157v216.262h186.269c47.071 0 85.554 38.317 85.554 85.19-0.262 47.064-38.458 85.12-85.55 85.157h-186.239v105.538h294.152c47.071 0 85.587 38.317 85.587 85.19-0.262 47.064-38.458 85.12-85.55 85.157h-294.189v106.034h409.765c47.071-0.033 85.587 38.284 85.587 85.091-0.225 47.093-38.434 85.186-85.55 85.223h-0.004z" />
<glyph unicode="&#xe90c;" glyph-name="rur" horiz-adv-x="887" d="M623.889 579.618h-279.040v205.961h279.040c58.573 0 106.052-46.114 106.052-103.014 0-56.866-47.445-102.98-106.052-102.98zM848.077 822.852c-49.698 81.886-141.414 137.148-245.794 137.148h-347.238c-49.391 0-89.771-39.253-89.771-87.211v-580.881h-75.503c-49.391 0-89.771-39.253-89.771-87.177 0-47.957 40.38-87.211 89.771-87.211h75.503v-94.31c0-47.957 40.38-87.211 89.771-87.211 49.357 0 89.771 39.253 89.771 87.211v94.31h186.982c49.391 0 89.771 39.253 89.771 87.211s-40.38 87.177-89.771 87.177h-186.982v113.323h257.468c0.072 0.302 0.142 0.542 0.223 0.777l-0.018-0.060c0.020 0 0.044 0 0.069 0 40.117 0 78.329 8.157 113.069 22.902l-1.897-0.715c101.888 42.359 173.739 140.834 173.739 254.839-0.027 51.751-14.682 100.073-40.053 141.064l0.663-1.151z" />
<glyph unicode="&#xe90d;" glyph-name="gbr" horiz-adv-x="776" d="M648.44 131.181s0.528 0.745 1.645 1.924c-8.378-8.844-55.172-49.648-154.996 16.663-53.217 35.312-115.557 48.718-183.792 39.936 18.928 44.342 31.341 80.493 39.191 110.468h121.204c43.567 0 79.251 36.212 79.251 80.493 0 44.311-35.685 80.524-79.251 80.524h-126.293c-4.81 16.725-8.688 29.075-15.205 49.959-4.437 14.274-10.24 32.737-18.525 59.764-22.683 73.821-7.975 150.9 17.408 185.965 10.643 14.708 30.099 34.257 76.272 34.257 36.181 0 57.003-14.181 71.835-48.966 15.205-35.716 15.391-75 15.391-75.404v0.559l166.167-2.327c0.186 14.274-0.496 141.591-82.168 225.745-44.001 45.304-103.207 69.26-171.225 69.26-112.050 0-176.128-56.041-210.168-103.083-70.532-97.497-71.99-239.182-42.139-336.306 8.223-26.686 13.964-45.087 18.432-59.392h-92.222c-43.598-0.031-79.251-36.243-79.251-80.555 0-44.28 35.685-80.524 79.251-80.524h96.877c-8.999-24.576-22.125-56.010-41.27-95.822-36.057-75.062-74.256-139.388-74.628-140.040-7.572-12.506-12.053-27.617-12.053-43.775 0-25.095 10.809-47.666 28.025-63.31l0.070-0.063c14.455-13.126 33.739-21.161 54.9-21.161 19.602 0 37.593 6.895 51.681 18.392l-0.148-0.117c35.809 28.424 153.29 99.421 221.463 54.148 183.824-122.073 323.429-44.063 371.588 14.274l-127.317 108.544z" />
<glyph unicode="&#xe90e;" glyph-name="eur" horiz-adv-x="1058" d="M972.902 249.754c-23.347 0-44.373-9.796-59.221-25.395l-0.137 0.102c-62.039-64.147-148.884-103.971-245.030-103.971-0.209 0-0.417 0-0.626 0.001h0.032c-0.163 0-0.357 0-0.55 0-110.201 0-208.187 52.303-270.487 133.439l-0.596 0.808h208.486c46.148 0 83.9 37.547 83.9 83.388s-37.751 83.354-83.9 83.354h-275.388c-1.328 11.226-2.096 24.25-2.116 37.45v0.028c0.018 13.226 0.787 26.251 2.265 39.059l-0.148-1.581h275.388c46.148 0 83.9 37.513 83.9 83.354s-37.751 83.354-83.9 83.354h-208.486c62.896 81.944 160.882 134.247 271.083 134.247 0.193 0 0.386 0 0.58 0h-0.030c0.182 0 0.397 0.001 0.612 0.001 96.134 0 182.97-39.81 244.921-103.843l0.090-0.094 0.751 0.649c14.842-15.271 35.577-24.747 58.525-24.747 0.029 0 0.057 0 0.086 0h-0.004c45.056 0 81.579 36.284 81.579 81.067 0 27.204-13.517 51.2-34.236 65.911-90.65 88.435-214.711 142.985-351.513 142.985-0.285 0-0.57 0-0.855-0.001h0.044c-0.225 0-0.492 0.001-0.758 0.001-202.987 0-377.936-120.046-457.724-293.015l-1.293-3.126h-124.245c-46.148-0.034-83.9-37.547-83.9-83.388s37.751-83.354 83.9-83.354h81.852c-0.893-11.218-1.402-24.289-1.402-37.478s0.509-26.26 1.509-39.193l-0.107 1.715h-81.852c-46.148 0-83.9-37.547-83.9-83.388 0-45.875 37.751-83.388 83.9-83.388h124.245c81.089-176.077 256.028-296.107 459.002-296.107 0.272 0 0.544 0 0.816 0.001h-0.042c140.186 0 266.991 56.934 358.298 148.787 17.338 14.866 28.256 36.792 28.262 61.268v0.001c-0.155 44.805-36.512 81.067-81.339 81.067-0.084 0-0.168 0-0.252 0h0.013z" />
<glyph unicode="&#xe90f;" glyph-name="usd" horiz-adv-x="614" d="M479.027 294.224c-0.056-2.068-0.162-3.979-0.317-5.876l0.025 0.376-0.029-0.468c-4.096-45.641-44.325-81.54-91.458-81.54h-4.564v178.381h-0.146v0.936h0.146v-0.936h6.583c1.551 0 3.072-0.029 4.593-0.117 0.527 0 1.053-0.088 1.551-0.117 0.995-0.059 1.989-0.117 2.984-0.234 0.585-0.029 1.17-0.146 1.755-0.205l2.721-0.351 1.872-0.322 2.516-0.439 1.931-0.439 2.399-0.556 1.902-0.527c0.761-0.205 1.551-0.41 2.341-0.673l1.872-0.614 2.253-0.761 1.902-0.731c0.731-0.293 1.463-0.556 2.165-0.878 0.644-0.234 1.258-0.527 1.872-0.79l2.077-0.936 1.843-0.936 2.048-1.024 1.755-0.995c0.644-0.38 1.317-0.731 1.96-1.141l1.755-1.083 1.872-1.2 1.697-1.17 1.814-1.287 1.638-1.258c0.585-0.468 1.17-0.878 1.755-1.375l1.551-1.317 1.697-1.463 1.492-1.404 1.609-1.521 1.463-1.463 1.521-1.58 1.346-1.551 1.463-1.668 1.287-1.609 1.375-1.726 1.229-1.668 1.287-1.785 1.17-1.755 1.17-1.843 1.053-1.785 1.112-1.902 0.995-1.843 0.995-1.989 0.878-1.872 0.936-2.048c0.293-0.614 0.556-1.287 0.819-1.931l0.819-2.048 0.702-1.989 0.731-2.136 0.585-2.048 0.644-2.136 0.527-2.077 0.497-2.194 0.41-2.136c0.35-1.675 0.711-3.949 0.983-6.249l0.041-0.422 0.205-2.165c0.194-2.344 0.305-5.074 0.305-7.829 0-0.56-0.005-1.118-0.014-1.676l0.001 0.084zM230.634 571.933v-35.752h-6.524c-0.087 0-0.19 0-0.293 0-49.342 0-89.36 39.916-89.526 89.219v0.016c0.199 49.293 40.205 89.176 89.526 89.176 0.103 0 0.206 0 0.309-0.001h6.538v-142.658zM596.699 381.118c-12.096 31.013-29.27 57.567-50.752 79.955l0.079-0.083c-7.703 8.065-15.847 15.523-24.466 22.413l-0.49 0.378c-37.799 30.263-85.624 49.464-137.821 52.055l-0.566 0.022-0.146 0.029v0.293h0.146v178.41h6.583c38.941 0 72.090-24.635 84.553-59.099 2.298-13.29 8.286-24.9 16.857-34.063l-0.034 0.037c12.288-13.224 29.842-21.533 49.357-21.533 0.055 0 0.12 0 0.185 0 26.608 0 49.593 15.511 60.407 37.984l0.174 0.402c1.96 5.442 3.745 10.971 5.325 16.589 0.673 3.833 1.112 7.753 1.112 11.791 0 3.511-0.38 6.992-0.878 10.386l0.351-0.878c0.702-1.726-0.293 2.692-2.487 10.299v0.059c-5.329 18.326-11.341 33.885-18.49 48.795l0.819-1.896c-40.949 78.999-122.043 132.078-215.548 132.213h11.713v16.208c0 41.545-34.202 75.542-76.010 75.542-41.838 0-76.039-33.997-76.039-75.542v-16.208h11.761c-93.523-0.135-174.618-53.214-214.93-130.866l-0.636-1.347c-16.375-31.325-25.982-68.42-25.982-107.76 0-39.52 9.695-76.775 26.837-109.518l-0.621 1.302c10.62-20.773 24.283-39.731 40.229-56.496 22.344-23.431 49.191-42.346 79.18-55.39l1.57-0.608c24.279-10.613 52.467-17.422 82.062-18.878l0.56-0.022v-179.814h-6.554c-0.051 0-0.111 0-0.171 0-38.577 0-71.472 24.328-84.18 58.479l-0.202 0.621c-2.289 13.297-8.29 24.911-16.884 34.061l0.032-0.035c-12.306 13.301-29.852 21.6-49.336 21.6-18.28 0-34.853-7.305-46.961-19.154l0.012 0.012c-5.676-5.559-10.386-12.083-13.809-19.31-1.483-3.798-3.301-9.32-4.915-14.927l-0.41-1.662c-0.687-3.534-1.090-7.608-1.112-11.773v-0.018c0-3.511 0.351-6.992 0.878-10.386l-0.38 0.907c-0.673 1.697 0.293-2.721 2.516-10.328v-0.059c3.423-11.644 9.743-30.749 17.671-46.899 39.171-75.568 114.969-127.336 203.248-131.867l0.586-0.024v-16.091c0-41.545 34.202-75.513 76.010-75.513s76.010 33.968 76.010 75.513v16.618h-0.146v0.585h0.146c30.162 1.467 58.362 8.266 84.208 19.472l-1.556-0.601c52.723 22.865 94.738 62.186 120.427 111.384l0.639 1.344c16.44 31.372 26.087 68.534 26.087 107.95 0 30.549-5.794 59.744-16.344 86.547l0.556-1.604z" />
<glyph unicode="&#xe972;" glyph-name="users" horiz-adv-x="1152" d="M768 189.388v52.78c70.498 39.728 128 138.772 128 237.832 0 159.058 0 288-192 288s-192-128.942-192-288c0-99.060 57.502-198.104 128-237.832v-52.78c-217.102-17.748-384-124.42-384-253.388h896c0 128.968-166.898 235.64-384 253.388zM327.196 164.672c55.31 36.15 124.080 63.636 199.788 80.414-15.054 17.784-28.708 37.622-40.492 59.020-30.414 55.234-46.492 116.058-46.492 175.894 0 86.042 0 167.31 30.6 233.762 29.706 64.504 83.128 104.496 159.222 119.488-16.914 76.48-61.94 126.75-181.822 126.75-192 0-192-128.942-192-288 0-99.060 57.502-198.104 128-237.832v-52.78c-217.102-17.748-384-124.42-384-253.388h279.006c14.518 12.91 30.596 25.172 48.19 36.672z" />
<glyph unicode="&#xe9ac;" glyph-name="delete" d="M128 640v-640c0-35.2 28.8-64 64-64h576c35.2 0 64 28.8 64 64v640h-704zM320 64h-64v448h64v-448zM448 64h-64v448h64v-448zM576 64h-64v448h64v-448zM704 64h-64v448h64v-448zM848 832h-208v80c0 26.4-21.6 48-48 48h-224c-26.4 0-48-21.6-48-48v-80h-208c-26.4 0-48-21.6-48-48v-80h832v80c0 26.4-21.6 48-48 48zM576 832h-192v63.198h192v-63.198z" />
<glyph unicode="&#xe9ae;" glyph-name="briefcase" d="M960 704h-256v64c0 35.2-28.8 64-64 64h-256c-35.204 0-64-28.8-64-64v-64h-256c-35.2 0-64-28.8-64-64v-576c0-35.202 28.796-64 64-64h896c35.2 0 64 28.798 64 64v576c0 35.2-28.8 64-64 64zM384 767.884c0.034 0.040 0.074 0.082 0.114 0.116h255.772c0.042-0.034 0.082-0.076 0.118-0.116v-63.884h-256.004v63.884zM960 448h-128v-96c0-17.602-14.4-32-32-32h-64c-17.604 0-32 14.398-32 32v96h-384v-96c0-17.602-14.4-32-32-32h-64c-17.602 0-32 14.398-32 32v96h-128v64h896v-64z" />
<glyph unicode="&#xea0a;" glyph-name="plus" d="M992 576h-352v352c0 17.672-14.328 32-32 32h-192c-17.672 0-32-14.328-32-32v-352h-352c-17.672 0-32-14.328-32-32v-192c0-17.672 14.328-32 32-32h352v-352c0-17.672 14.328-32 32-32h192c17.672 0 32 14.328 32 32v352h352c17.672 0 32 14.328 32 32v192c0 17.672-14.328 32-32 32z" />
<glyph unicode="&#xea0b;" glyph-name="minus" d="M0 544v-192c0-17.672 14.328-32 32-32h960c17.672 0 32 14.328 32 32v192c0 17.672-14.328 32-32 32h-960c-17.672 0-32-14.328-32-32z" />
<glyph unicode="&#xea0f;" glyph-name="cross" d="M1014.662 137.34c-0.004 0.004-0.008 0.008-0.012 0.010l-310.644 310.65 310.644 310.65c0.004 0.004 0.008 0.006 0.012 0.010 3.344 3.346 5.762 7.254 7.312 11.416 4.246 11.376 1.824 24.682-7.324 33.83l-146.746 146.746c-9.148 9.146-22.45 11.566-33.828 7.32-4.16-1.55-8.070-3.968-11.418-7.31 0-0.004-0.004-0.006-0.008-0.010l-310.648-310.652-310.648 310.65c-0.004 0.004-0.006 0.006-0.010 0.010-3.346 3.342-7.254 5.76-11.414 7.31-11.38 4.248-24.682 1.826-33.83-7.32l-146.748-146.748c-9.148-9.148-11.568-22.452-7.322-33.828 1.552-4.16 3.97-8.072 7.312-11.416 0.004-0.002 0.006-0.006 0.010-0.010l310.65-310.648-310.65-310.652c-0.002-0.004-0.006-0.006-0.008-0.010-3.342-3.346-5.76-7.254-7.314-11.414-4.248-11.376-1.826-24.682 7.322-33.83l146.748-146.746c9.15-9.148 22.452-11.568 33.83-7.322 4.16 1.552 8.070 3.97 11.416 7.312 0.002 0.004 0.006 0.006 0.010 0.010l310.648 310.65 310.648-310.65c0.004-0.002 0.008-0.006 0.012-0.008 3.348-3.344 7.254-5.762 11.414-7.314 11.378-4.246 24.684-1.826 33.828 7.322l146.746 146.748c9.148 9.148 11.57 22.454 7.324 33.83-1.552 4.16-3.97 8.068-7.314 11.414z" />
</font>
</defs>
</svg>
