<svg xmlns="http://www.w3.org/2000/svg" xmlns:xlink="http://www.w3.org/1999/xlink" width="41" height="40" viewBox="0 0 41 40">
    <defs>
        <rect id="a" width="40.83" height="39.835" rx="19.917"/>
        <path id="c" d="M.066.11h13.919v10.001H.065z"/>
        <path id="e" d="M0 .017h13.832V10H0z"/>
    </defs>
    <g fill="none" fill-rule="evenodd">
        <g>
            <mask id="b" fill="#fff">
                <use xlink:href="#a"/>
            </mask>
            <use fill="#00A0DF" xlink:href="#a"/>
            <g mask="url(#b)">
                <path fill="#FFF" d="M21.416 33.691l-.362-.486c.015.043.151.028.364-.038a11.8 11.8 0 0 1-1.646.017l.055.021-.348.468s.2-.05.76-.093c.56-.042 1.177.111 1.177.111"/>
                <path fill="#EEECE4" d="M14.832 29.946l-.01.002.006.03.004-.032"/>
                <path fill="#FFF" d="M19.604 38.34s-.197-.665-.568-1.109c-.37-.443-1.066-1.53-1.066-1.53l-1.596 2.146-.127-.507.098.507.487 2.08h2.532c.013-.445.017-.823.017-.922 0-.247.223-.665.223-.665M21.416 33.691l.849 1.25s-.561.369-.462 1.428c.099 1.06-.124 2.192-.124 2.192l.185 1.366h2.157l.487-2.08-3.092-4.156z"/>
                <path fill="#E8C2C0" d="M15.454 18.944V29.794c.417 1.838 3.847 3.21 4.318 3.39a11.959 11.959 0 0 0 1.646-.017c1.3-.148 3.47-1.603 3.948-3.398.026-.098.048-.197.061-.297l.059-.813v-9.715H15.454z"/>
                <path fill="#FFF" d="M15.46 29.797v0M19.772 33.184c-.47-.18-3.901-1.553-4.317-3.39h-.001v-1.127s-.252.177-.619 1.223c-.005.016-.007.033-.01.052l-.003.03 1.425 7.368.127.507L17.97 35.7l1.51-2.028.347-.468-.055-.02M25.486 28.659c-.038-.008 0 0 0 0l-.059.813c-.013.1-.035.2-.061.297-.478 1.795-2.988 3.145-3.948 3.398l-.38.017.378.507 3.092 4.156 1.532-7.924c-.25-1.033-.554-1.264-.554-1.264"/>
                <path fill="#FFF" d="M20.239 33.58c-.56.042-.76.093-.76.093L17.97 35.7s.14.914.696 1.628c.556.714.938 1.01.938 1.01s.239-.341 1.005-.368c.873-.032 1.07.59 1.07.59l1.283-2.595-1.546-2.275s-.617-.153-1.177-.11"/>
                <path fill="#FFF" d="M19.48 33.673L17.97 35.7l1.51-2.028zM21.421 33.697zM21.482 38.34s-.42-.345-.873-.345-1.005.345-1.005.345-.223.418-.223.665c0 .099-.004.477-.017.922h2.5l-.185-1.366-.197-.221z"/>
                <path fill="#FFF" d="M20.609 37.97c-.766.028-1.005.37-1.005.37s.552-.345 1.005-.345c.452 0 .873.344.873.344l.197.222s-.197-.622-1.07-.59"/>
                <g transform="translate(23.955 29.816)">
                    <mask id="d" fill="#fff">
                        <use xlink:href="#c"/>
                    </mask>
                    <path fill="#008A3E" d="M2.098.11C2.288 1.213.552 8.03.552 8.03l-.486 2.081h13.919c-1.26-4.71-5.864-8.52-11.887-10" mask="url(#d)"/>
                </g>
                <path fill="#008A3E" d="M24.508 37.847s1.736-6.818 1.545-7.92l-.013-.004-1.532 7.924z"/>
                <g transform="translate(3 29.927)">
                    <mask id="f" fill="#fff">
                        <use xlink:href="#e"/>
                    </mask>
                    <path fill="#008A3E" d="M13.247 7.413c-.39-1.576-1.542-6.346-1.425-7.369l-.005-.027C5.827 1.509 1.255 5.309 0 10h13.832l-.487-2.08-.098-.507z" mask="url(#f)"/>
                </g>
                <path fill="#008A3E" d="M16.247 37.34l-1.425-7.368c-.117 1.023 1.034 5.793 1.425 7.368"/>
                <path fill="#E8C2C0" d="M11.441 19.111A2.838 2.838 0 0 1 8.6 16.278v-1.445A2.838 2.838 0 0 1 11.44 12a2.838 2.838 0 0 1 2.843 2.833v1.445a2.838 2.838 0 0 1-2.843 2.833M29.499 19.111a2.838 2.838 0 0 1-2.843-2.833v-1.445A2.838 2.838 0 0 1 29.5 12a2.838 2.838 0 0 1 2.842 2.833v1.445a2.838 2.838 0 0 1-2.842 2.833"/>
                <path fill="#F7DCD9" d="M25.848 7.064c0-1.406.191-2.758.544-4.02a9.616 9.616 0 0 0-.566-.414C25.484 9.163 19.755 12 14.284 12c-1.675 0-2.002.96-3.4.1v7.789c0 5.277 4.292 9.555 9.586 9.555 5.294 0 9.586-4.278 9.586-9.555v-3.632c-2.552-2.277-4.208-5.055-4.208-9.193"/>
                <path fill="#342C2C" d="M25.826 2.63A9.563 9.563 0 0 0 20.47 1c-5.294 0-9.586 3.39-9.586 8.667V14s3.025-.168 4.654-.556C21.612 12 25.484 9.163 25.826 2.63"/>
                <path fill="#342C2C" d="M25.826 2.63c-.352 1.261-.647 3.036-.647 4.442 0 4.138 2.325 6.908 4.877 9.185v-6.59c0-3.049-1.605-5.62-4.23-7.037"/>
                <path fill="#000" d="M25.18 17.333a.556.556 0 1 1-1.114-.001.556.556 0 0 1 1.113.001"/>
                <path fill="#573A37" d="M17.106 24.627c.736.873 2.07 1.457 3.595 1.457 1.524 0 2.859-.584 3.595-1.457-.905.576-2.181.934-3.595.934-1.414 0-2.69-.358-3.595-.934"/>
                <path fill="#E9A693" d="M21.803 21.303c0 .809-.7 1.464-1.564 1.464-.864 0-1.564-.655-1.564-1.463 0-.809.7-1.464 1.564-1.464.864 0 1.564.655 1.564 1.463"/>
                <path fill="#F7DCD9" d="M22.265 20.897c0 .808-.7 1.464-1.564 1.464-.864 0-1.564-.656-1.564-1.464 0-.808.7-1.464 1.564-1.464.864 0 1.564.656 1.564 1.464"/>
                <path fill="#FFF" d="M18.686 17.361a2.365 2.365 0 0 1-2.368 2.361 2.365 2.365 0 0 1-2.369-2.36A2.365 2.365 0 0 1 16.318 15a2.365 2.365 0 0 1 2.368 2.361"/>
                <path fill="#000" d="M16.93 17.333a.556.556 0 1 1-1.112-.001.556.556 0 0 1 1.113.001"/>
                <path fill="#130202" d="M16.162 13.492c.097.297-.307.694-.902.888-.596.194-1.158.11-1.255-.186-.097-.297.307-.695.902-.888.596-.194 1.157-.11 1.255.186"/>
                <path fill="#FFF" d="M22.253 17.344a2.365 2.365 0 0 0 2.369 2.361 2.365 2.365 0 0 0 2.369-2.361 2.365 2.365 0 0 0-2.369-2.361 2.365 2.365 0 0 0-2.369 2.36"/>
                <path fill="#000" d="M24.009 17.316a.556.556 0 1 0 1.113-.002.556.556 0 0 0-1.113.002"/>
                <path fill="#130202" d="M24.778 13.475c-.097.297.307.694.902.888.596.194 1.157.11 1.255-.186.097-.297-.307-.695-.902-.889-.596-.193-1.158-.11-1.255.187"/>
            </g>
        </g>
    </g>
</svg>
