<svg xmlns="http://www.w3.org/2000/svg" width="28" height="28" viewBox="0 0 28 28">
    <g fill="none" fill-rule="evenodd">
        <rect width="28" height="28" fill="#CAF0FF" rx="13.915"/>
        <path d="M4 4h20v20H4z"/>
        <path fill="#00A0DF" fill-rule="nonzero" d="M9.388 20.063c0 .908.734 1.651 1.632 1.651h6.531c.898 0 1.633-.743 1.633-1.65v-9.905H9.388v9.904zm2.012-5.876l1.155-1.168 1.73 1.75 1.731-1.75 1.155 1.168-1.73 1.75 1.73 1.75-1.155 1.167-1.73-1.75-1.73 1.75-1.156-1.168 1.73-1.75-1.73-1.75zm5.743-7.504l-.816-.826h-4.082l-.816.826H8.57v1.65H20v-1.65h-2.857z"/>
    </g>
</svg>
