<svg xmlns="http://www.w3.org/2000/svg" width="14" height="14" viewBox="0 0 14 14">
    <path fill="#BFC4D1" fill-rule="evenodd" d="M6.272 11.146A4.878 4.878 0 0 1 1.4 6.273 4.877 4.877 0 0 1 6.272 1.4a4.877 4.877 0 0 1 4.873 4.873 4.878 4.878 0 0 1-4.873 4.873zm6.396 1.065l-1.745-1.744a6.238 6.238 0 0 0 1.622-4.194A6.274 6.274 0 0 0 9.14.7a6.22 6.22 0 0 0-5.734 0A6.307 6.307 0 0 0 .667 3.472 6.234 6.234 0 0 0 0 6.273C0 7.28.244 8.23.667 9.074a6.276 6.276 0 0 0 5.605 3.472 6.236 6.236 0 0 0 3.586-1.133l1.286 1.287 1.25 1.25 1.006-1.006-.732-.733z"/>
</svg>
