<?xml version="1.0" encoding="utf-8"?>
<!-- Svg Vector Icons : http://www.onlinewebfonts.com/icon -->
<!DOCTYPE svg PUBLIC "-//W3C//DTD SVG 1.1//EN" "http://www.w3.org/Graphics/SVG/1.1/DTD/svg11.dtd">
<svg version="1.1" xmlns="http://www.w3.org/2000/svg" xmlns:xlink="http://www.w3.org/1999/xlink" x="0px" y="0px" viewBox="0 0 1000 1000" enable-background="new 0 0 1000 1000" xml:space="preserve">
<metadata> Svg Vector Icons : http://www.onlinewebfonts.com/icon </metadata>
<g><path d="M560.2,459.9h-12.5V262.5H684c22.2,0,40.1-18,40.1-40.1c0-22.2-18-40.1-40.1-40.1H547.6V50.1c0-22.2-18-40.1-40.1-40.1c-22.2,0-40.1,18-40.1,40.1v132.1h-27.5c-98.7,0-179,80.3-179,178.9c0,98.7,80.3,178.9,179,178.9h27.5v197.3H316c-22.2,0-40.1,18-40.1,40.2c0,22.1,18,40.1,40.1,40.1h151.3v132.1c0,22.2,18,40.1,40.1,40.1c22.2,0,40.2-18,40.2-40.1V817.7h12.5c98.7,0,179-80.3,179-178.9C739.1,540.1,658.8,459.9,560.2,459.9z M341.1,361.2c0-54.4,44.3-98.7,98.7-98.7h27.5v197.3h-27.5C385.4,459.9,341.1,415.6,341.1,361.2z M560.2,737.5h-12.5V540.1h12.5c54.4,0,98.7,44.3,98.7,98.7C658.8,693.2,614.6,737.5,560.2,737.5z"/></g>
</svg>