<svg xmlns="http://www.w3.org/2000/svg" xmlns:xlink="http://www.w3.org/1999/xlink" width="82" height="30" viewBox="0 0 82 30">
    <defs>
        <path id="a" d="M7.504.444H.174v22.928h8.24c1.118.053 2.24-.055 3.327-.32 2.73-.68 4.392-2.945 4.392-6.078a5.412 5.412 0 0 0-1.94-4.489 8.026 8.026 0 0 0-2.14-1.232v-.079l.043-.016a5.571 5.571 0 0 0 1.802-1.225A5.08 5.08 0 0 0 15.362 6.2c0-2.89-1.741-4.722-4.392-5.434-.977-.22-1.974-.33-2.973-.33-.165 0-.33.002-.493.008zm-2.78 3.76h2.451a6.297 6.297 0 0 1 1.733.156 2.318 2.318 0 0 1 1.733 2.544 2.509 2.509 0 0 1-1.733 2.603 5.48 5.48 0 0 1-1.586.122H4.723V4.203zm0 9.393l3.04-.019c1.421 0 2.253.167 2.928 1.034.407.572.62 1.26.606 1.962.05.89-.3 1.755-.952 2.361-.7.535-1.578.778-2.453.678h-3.17v-6.016zM36.25.444V23.38l7.399-.008c3.05 0 4.548-.278 5.978-1.268a6.597 6.597 0 0 0 2.695-5.678 6.763 6.763 0 0 0-2.262-5.434c-1.065-.911-2.608-1.623-5.579-1.623H40.8V4.29h9.036L51.144.444H36.251zM40.8 13.163h3.43a3.46 3.46 0 0 1 2.175.555 3.025 3.025 0 0 1 1.187 2.605c.039.783-.2 1.555-.675 2.178a3.021 3.021 0 0 1-2.652 1.034H40.8v-6.372zM16.445.443v3.84h6.62V23.38l4.591.009V4.29h5.857L34.822.444H16.445z"/>
    </defs>
    <g fill="none" fill-rule="evenodd">
        <path fill="#08A0DE" d="M5.69 0L4.27 3.717h19.72L25.41 0H5.69zM3.55 5.575L2.13 9.293h19.72l1.429-3.718H3.55zm-2.13 5.56L0 14.852h19.701l1.448-3.717H1.42z"/>
        <path fill="#00229A" d="M36.752 6.76h-7.33v22.928h8.24c1.119.052 2.24-.055 3.327-.321 2.73-.678 4.392-2.944 4.392-6.078a5.412 5.412 0 0 0-1.94-4.488 8.03 8.03 0 0 0-2.14-1.233v-.078l.044-.017a5.556 5.556 0 0 0 1.8-1.225 5.08 5.08 0 0 0 1.465-3.732c0-2.89-1.74-4.722-4.392-5.435a13.549 13.549 0 0 0-3.466-.321zm-2.78 3.759h2.452a6.273 6.273 0 0 1 1.732.157 2.317 2.317 0 0 1 1.733 2.543 2.509 2.509 0 0 1-1.733 2.604 5.48 5.48 0 0 1-1.586.122h-2.599v-5.426zm0 9.394l3.04-.019c1.421 0 2.253.166 2.928 1.034.407.571.62 1.26.607 1.962a3 3 0 0 1-.953 2.36 3.398 3.398 0 0 1-2.452.678h-3.17v-6.015zM65.498 6.76v22.936l7.4-.008c3.049 0 4.548-.278 5.978-1.268a6.596 6.596 0 0 0 2.695-5.677 6.763 6.763 0 0 0-2.262-5.435c-1.065-.911-2.608-1.623-5.58-1.623h-3.682v-5.079h9.036l1.31-3.846H65.498zm4.55 12.718h3.43a3.457 3.457 0 0 1 2.174.556 3.024 3.024 0 0 1 1.188 2.605c.039.782-.2 1.555-.676 2.178a3.02 3.02 0 0 1-2.651 1.033h-3.466v-6.372zM45.692 6.76v3.838h6.62v19.098l4.592.009V10.606h5.856L64.07 6.76H45.693z"/>
        <g transform="translate(29.248 6.316)">
            <mask id="b" fill="#fff">
                <use xlink:href="#a"/>
            </mask>
            <path fill="#00229A" d="M-6.79 30.526h66.331V-6.316h-66.33z" mask="url(#b)"/>
            <path fill="#00229A" d="M-6.512 30.14H59.02V-6.316H-6.512z" mask="url(#b)"/>
            <path fill="#00229A" d="M0 23.684h52.752V0H0z" mask="url(#b)"/>
            <path fill="#00229A" d="M-9.124 32.772h70.756v-41.72H-9.124z" mask="url(#b)"/>
        </g>
    </g>
</svg>
